<svg width="800" height="100" viewBox="0 0 800 100" xmlns="http://www.w3.org/2000/svg">
<style>
@keyframes fL{from{opacity:0;transform:translateX(-12px)}to{opacity:1;transform:translateX(0)}}
@keyframes fR{from{opacity:0;transform:translateX(12px)}to{opacity:1;transform:translateX(0)}}
.L{opacity:0;animation:fL .6s ease-out .1s forwards}
.R{opacity:0;animation:fR .6s ease-out .5s forwards}
text{font-family:-apple-system,'Segoe UI',Arial,sans-serif}
</style>
<rect width="800" height="100" fill="#0d1117"/>
<rect x=".5" y=".5" width="799" height="99" rx="8" fill="none" stroke="#21262d" stroke-width="1"/>
<rect x="0" y="0" width="4" height="100" fill="#58a6ff" opacity=".8"/>
<g class="L">
  <text x="22" y="34" font-size="20" font-weight="700" fill="#58a6ff" letter-spacing="2">DATA SCIENTIST</text>
  <text x="22" y="56" font-size="11" fill="#6e7681">Predictive Analytics &nbsp;·&nbsp; Business Intelligence &nbsp;·&nbsp; Enterprise Automation</text>
  <text x="22" y="76" font-size="10" fill="#484f58">M.S. Data Science with Distinction &nbsp;·&nbsp; Public Trust Cleared &nbsp;·&nbsp; Open to Relocation</text>
</g>
<line x1="388" y1="14" x2="388" y2="86" stroke="#21262d" stroke-width="1"/>
<g class="R">
  <text x="406" y="26" font-size="8" fill="#484f58" letter-spacing="3" font-weight="600">CORE STACK</text>
  <rect x="406" y="33" width="40" height="18" rx="9" fill="#161b22" stroke="#30363d" stroke-width=".5"/>
  <text x="426" y="46" text-anchor="middle" font-size="10" fill="#8b949e">SQL</text>
  <rect x="454" y="33" width="62" height="18" rx="9" fill="#161b22" stroke="#30363d" stroke-width=".5"/>
  <text x="485" y="46" text-anchor="middle" font-size="10" fill="#8b949e">Python</text>
  <rect x="524" y="33" width="72" height="18" rx="9" fill="#161b22" stroke="#30363d" stroke-width=".5"/>
  <text x="560" y="46" text-anchor="middle" font-size="10" fill="#8b949e">Power BI</text>
  <rect x="604" y="33" width="56" height="18" rx="9" fill="#161b22" stroke="#30363d" stroke-width=".5"/>
  <text x="632" y="46" text-anchor="middle" font-size="10" fill="#8b949e">Azure</text>
  <rect x="668" y="33" width="56" height="18" rx="9" fill="#161b22" stroke="#30363d" stroke-width=".5"/>
  <text x="696" y="46" text-anchor="middle" font-size="10" fill="#8b949e">Fabric</text>
  <rect x="406" y="59" width="62" height="18" rx="9" fill="#161b22" stroke="#30363d" stroke-width=".5"/>
  <text x="437" y="72" text-anchor="middle" font-size="10" fill="#8b949e">Pandas</text>
  <rect x="476" y="59" width="96" height="18" rx="9" fill="#161b22" stroke="#30363d" stroke-width=".5"/>
  <text x="524" y="72" text-anchor="middle" font-size="10" fill="#8b949e">Scikit-Learn</text>
  <rect x="580" y="59" width="84" height="18" rx="9" fill="#161b22" stroke="#30363d" stroke-width=".5"/>
  <text x="622" y="72" text-anchor="middle" font-size="10" fill="#8b949e">Power Apps</text>
  <rect x="672" y="59" width="40" height="18" rx="9" fill="#161b22" stroke="#30363d" stroke-width=".5"/>
  <text x="692" y="72" text-anchor="middle" font-size="10" fill="#8b949e">DAX</text>
</g>
</svg>
